<svg xmlns="http://www.w3.org/2000/svg" width="1600" height="1000" viewBox="0 0 1600 1000" role="img" aria-labelledby="title desc">
  <title id="title">Cybertruck NPI Illustration</title>
  <desc id="desc">Stylized angular vehicle and NPI dashboard motif.</desc>
  <defs>
    <linearGradient id="bg" x1="0" y1="0" x2="1" y2="1">
      <stop offset="0%" stop-color="#eef2f8"/>
      <stop offset="100%" stop-color="#dfe6f2"/>
    </linearGradient>
  </defs>
  <rect width="1600" height="1000" fill="url(#bg)"/>
  <polygon points="300,670 500,450 1060,450 1320,670" fill="#bcc5d4" stroke="#8f9caf" stroke-width="8"/>
  <polygon points="520,500 980,500 1110,620 420,620" fill="#f3f5fa" stroke="#b4bfce" stroke-width="6"/>
  <circle cx="520" cy="680" r="52" fill="#252d3b"/>
  <circle cx="520" cy="680" r="24" fill="#8a97ab"/>
  <circle cx="1120" cy="680" r="52" fill="#252d3b"/>
  <circle cx="1120" cy="680" r="24" fill="#8a97ab"/>
  <rect x="180" y="170" width="420" height="220" rx="16" fill="#ffffff" stroke="#bdc7d6" stroke-width="4"/>
  <text x="390" y="238" text-anchor="middle" font-family="Arial, Helvetica, sans-serif" font-size="34" fill="#202532">NPI TRACKER</text>
  <g fill="#dbe2ee">
    <rect x="220" y="268" width="120" height="82" rx="8"/>
    <rect x="356" y="268" width="120" height="82" rx="8"/>
    <rect x="492" y="268" width="70" height="82" rx="8"/>
  </g>
  <rect x="680" y="170" width="300" height="80" rx="10" fill="#11131a"/>
  <text x="830" y="224" text-anchor="middle" font-family="Arial, Helvetica, sans-serif" font-size="48" fill="#e82127" letter-spacing="3">CYBERTRUCK</text>
</svg>
