<svg xmlns="http://www.w3.org/2000/svg" width="1600" height="1000" viewBox="0 0 1600 1000" role="img" aria-labelledby="title desc">
  <title id="title">Model Y Production Illustration</title>
  <desc id="desc">Stylized electric vehicle assembly line inspired scene.</desc>
  <defs>
    <linearGradient id="bg" x1="0" y1="0" x2="1" y2="1">
      <stop offset="0%" stop-color="#f6f8fc"/>
      <stop offset="100%" stop-color="#e3e8f2"/>
    </linearGradient>
  </defs>
  <rect width="1600" height="1000" fill="url(#bg)"/>
  <rect x="80" y="720" width="1440" height="88" rx="16" fill="#2a3140"/>
  <g fill="#7d889b">
    <circle cx="300" cy="764" r="28"/>
    <circle cx="560" cy="764" r="28"/>
    <circle cx="820" cy="764" r="28"/>
    <circle cx="1080" cy="764" r="28"/>
    <circle cx="1340" cy="764" r="28"/>
  </g>
  <g transform="translate(360 420)">
    <path d="M0 140C22 58 84 12 180 12h220c92 0 154 44 178 128l22 76H-20z" fill="#fefefe" stroke="#cfd5e1" stroke-width="8"/>
    <rect x="110" y="40" width="190" height="60" rx="10" fill="#d7dde8"/>
    <circle cx="120" cy="214" r="42" fill="#222a38"/>
    <circle cx="120" cy="214" r="20" fill="#7b8699"/>
    <circle cx="460" cy="214" r="42" fill="#222a38"/>
    <circle cx="460" cy="214" r="20" fill="#7b8699"/>
  </g>
  <rect x="650" y="160" width="300" height="80" rx="10" fill="#11131a"/>
  <text x="800" y="214" text-anchor="middle" font-family="Arial, Helvetica, sans-serif" font-size="52" fill="#e82127" letter-spacing="4">MODEL Y</text>
</svg>
